<mxfile host="app.diagrams.net" modified="2024-03-15T14:02:58.233Z" agent="Mozilla/5.0 (X11; Linux x86_64) AppleWebKit/537.36 (KHTML, like Gecko) Chrome/116.0.0.0 Safari/537.36" etag="Tvx1yF9vG3xHGQxbIZ9T" version="24.0.6" type="github">
  <diagram id="R2lEEEUBdFMjLlhIrx00" name="Page-1">
    <mxGraphModel dx="2109" dy="673" grid="1" gridSize="10" guides="1" tooltips="1" connect="1" arrows="1" fold="1" page="1" pageScale="1" pageWidth="850" pageHeight="1100" math="0" shadow="0" extFonts="Permanent Marker^https://fonts.googleapis.com/css?family=Permanent+Marker">
      <root>
        <mxCell id="0" />
        <mxCell id="1" parent="0" />
        <mxCell id="UcPua-DJIdnO7vjkErRE-59" value="" style="edgeStyle=orthogonalEdgeStyle;rounded=0;orthogonalLoop=1;jettySize=auto;html=1;" parent="1" source="UcPua-DJIdnO7vjkErRE-25" target="UcPua-DJIdnO7vjkErRE-57" edge="1">
          <mxGeometry relative="1" as="geometry" />
        </mxCell>
        <mxCell id="UcPua-DJIdnO7vjkErRE-60" value="1" style="edgeLabel;html=1;align=center;verticalAlign=middle;resizable=0;points=[];" parent="UcPua-DJIdnO7vjkErRE-59" vertex="1" connectable="0">
          <mxGeometry x="0.028" y="1" relative="1" as="geometry">
            <mxPoint as="offset" />
          </mxGeometry>
        </mxCell>
        <mxCell id="UcPua-DJIdnO7vjkErRE-25" value="user" style="whiteSpace=wrap;html=1;align=center;" parent="1" vertex="1">
          <mxGeometry x="360" y="190" width="100" height="40" as="geometry" />
        </mxCell>
        <mxCell id="UcPua-DJIdnO7vjkErRE-26" value="id" style="ellipse;whiteSpace=wrap;html=1;align=center;fontStyle=4;" parent="1" vertex="1">
          <mxGeometry x="220" y="70" width="100" height="40" as="geometry" />
        </mxCell>
        <mxCell id="UcPua-DJIdnO7vjkErRE-28" value="" style="endArrow=none;html=1;rounded=0;exitX=1;exitY=1;exitDx=0;exitDy=0;entryX=0.5;entryY=0;entryDx=0;entryDy=0;" parent="1" source="UcPua-DJIdnO7vjkErRE-26" target="UcPua-DJIdnO7vjkErRE-25" edge="1">
          <mxGeometry relative="1" as="geometry">
            <mxPoint x="330" y="210" as="sourcePoint" />
            <mxPoint x="490" y="210" as="targetPoint" />
          </mxGeometry>
        </mxCell>
        <mxCell id="UcPua-DJIdnO7vjkErRE-41" value="name" style="ellipse;whiteSpace=wrap;html=1;align=center;" parent="1" vertex="1">
          <mxGeometry x="290" y="20" width="100" height="40" as="geometry" />
        </mxCell>
        <mxCell id="UcPua-DJIdnO7vjkErRE-42" value="" style="endArrow=none;html=1;rounded=0;exitX=0.5;exitY=1;exitDx=0;exitDy=0;" parent="1" source="UcPua-DJIdnO7vjkErRE-41" edge="1">
          <mxGeometry relative="1" as="geometry">
            <mxPoint x="420" y="110" as="sourcePoint" />
            <mxPoint x="410" y="190" as="targetPoint" />
          </mxGeometry>
        </mxCell>
        <mxCell id="UcPua-DJIdnO7vjkErRE-43" value="name" style="ellipse;whiteSpace=wrap;html=1;align=center;" parent="1" vertex="1">
          <mxGeometry x="360" y="60" width="100" height="40" as="geometry" />
        </mxCell>
        <mxCell id="UcPua-DJIdnO7vjkErRE-44" value="" style="endArrow=none;html=1;rounded=0;exitX=0.5;exitY=1;exitDx=0;exitDy=0;" parent="1" source="UcPua-DJIdnO7vjkErRE-43" edge="1">
          <mxGeometry relative="1" as="geometry">
            <mxPoint x="545" y="100" as="sourcePoint" />
            <mxPoint x="410" y="190" as="targetPoint" />
          </mxGeometry>
        </mxCell>
        <mxCell id="UcPua-DJIdnO7vjkErRE-45" value="phone" style="ellipse;whiteSpace=wrap;html=1;align=center;" parent="1" vertex="1">
          <mxGeometry x="450" width="100" height="40" as="geometry" />
        </mxCell>
        <mxCell id="UcPua-DJIdnO7vjkErRE-46" value="" style="endArrow=none;html=1;rounded=0;exitX=0.5;exitY=1;exitDx=0;exitDy=0;entryX=0.5;entryY=0;entryDx=0;entryDy=0;" parent="1" source="UcPua-DJIdnO7vjkErRE-45" target="UcPua-DJIdnO7vjkErRE-25" edge="1">
          <mxGeometry relative="1" as="geometry">
            <mxPoint x="635" y="90" as="sourcePoint" />
            <mxPoint x="500" y="180" as="targetPoint" />
          </mxGeometry>
        </mxCell>
        <mxCell id="UcPua-DJIdnO7vjkErRE-47" value="email" style="ellipse;whiteSpace=wrap;html=1;align=center;" parent="1" vertex="1">
          <mxGeometry x="500" y="50" width="100" height="40" as="geometry" />
        </mxCell>
        <mxCell id="UcPua-DJIdnO7vjkErRE-48" value="" style="endArrow=none;html=1;rounded=0;exitX=0.5;exitY=1;exitDx=0;exitDy=0;" parent="1" source="UcPua-DJIdnO7vjkErRE-47" edge="1">
          <mxGeometry relative="1" as="geometry">
            <mxPoint x="735" y="140" as="sourcePoint" />
            <mxPoint x="410" y="190" as="targetPoint" />
          </mxGeometry>
        </mxCell>
        <mxCell id="UcPua-DJIdnO7vjkErRE-49" value="cart" style="ellipse;whiteSpace=wrap;html=1;align=center;" parent="1" vertex="1">
          <mxGeometry x="570" y="90" width="100" height="40" as="geometry" />
        </mxCell>
        <mxCell id="UcPua-DJIdnO7vjkErRE-50" value="" style="endArrow=none;html=1;rounded=0;exitX=0.5;exitY=1;exitDx=0;exitDy=0;entryX=0.5;entryY=0;entryDx=0;entryDy=0;" parent="1" source="UcPua-DJIdnO7vjkErRE-49" target="UcPua-DJIdnO7vjkErRE-25" edge="1">
          <mxGeometry relative="1" as="geometry">
            <mxPoint x="805" y="180" as="sourcePoint" />
            <mxPoint x="480" y="230" as="targetPoint" />
          </mxGeometry>
        </mxCell>
        <mxCell id="UcPua-DJIdnO7vjkErRE-54" value="password" style="ellipse;whiteSpace=wrap;html=1;align=center;" parent="1" vertex="1">
          <mxGeometry x="160" y="130" width="100" height="40" as="geometry" />
        </mxCell>
        <mxCell id="UcPua-DJIdnO7vjkErRE-55" value="" style="endArrow=none;html=1;rounded=0;exitX=1;exitY=0.5;exitDx=0;exitDy=0;entryX=0.5;entryY=0;entryDx=0;entryDy=0;" parent="1" source="UcPua-DJIdnO7vjkErRE-54" target="UcPua-DJIdnO7vjkErRE-25" edge="1">
          <mxGeometry relative="1" as="geometry">
            <mxPoint x="430" y="120" as="sourcePoint" />
            <mxPoint x="420" y="200" as="targetPoint" />
          </mxGeometry>
        </mxCell>
        <mxCell id="UcPua-DJIdnO7vjkErRE-64" value="" style="edgeStyle=orthogonalEdgeStyle;rounded=0;orthogonalLoop=1;jettySize=auto;html=1;" parent="1" source="UcPua-DJIdnO7vjkErRE-57" target="UcPua-DJIdnO7vjkErRE-63" edge="1">
          <mxGeometry relative="1" as="geometry" />
        </mxCell>
        <mxCell id="UcPua-DJIdnO7vjkErRE-77" value="n" style="edgeLabel;html=1;align=center;verticalAlign=middle;resizable=0;points=[];" parent="UcPua-DJIdnO7vjkErRE-64" vertex="1" connectable="0">
          <mxGeometry x="0.1728" y="-1" relative="1" as="geometry">
            <mxPoint as="offset" />
          </mxGeometry>
        </mxCell>
        <mxCell id="UcPua-DJIdnO7vjkErRE-57" value="has" style="shape=rhombus;perimeter=rhombusPerimeter;whiteSpace=wrap;html=1;align=center;" parent="1" vertex="1">
          <mxGeometry x="350" y="290" width="120" height="60" as="geometry" />
        </mxCell>
        <mxCell id="UcPua-DJIdnO7vjkErRE-66" value="" style="edgeStyle=orthogonalEdgeStyle;rounded=0;orthogonalLoop=1;jettySize=auto;html=1;" parent="1" source="UcPua-DJIdnO7vjkErRE-63" target="UcPua-DJIdnO7vjkErRE-65" edge="1">
          <mxGeometry relative="1" as="geometry" />
        </mxCell>
        <mxCell id="UcPua-DJIdnO7vjkErRE-80" value="1" style="edgeLabel;html=1;align=center;verticalAlign=middle;resizable=0;points=[];" parent="UcPua-DJIdnO7vjkErRE-66" vertex="1" connectable="0">
          <mxGeometry x="-0.0493" y="1" relative="1" as="geometry">
            <mxPoint as="offset" />
          </mxGeometry>
        </mxCell>
        <mxCell id="UcPua-DJIdnO7vjkErRE-70" value="" style="edgeStyle=orthogonalEdgeStyle;rounded=0;orthogonalLoop=1;jettySize=auto;html=1;" parent="1" source="UcPua-DJIdnO7vjkErRE-63" target="UcPua-DJIdnO7vjkErRE-69" edge="1">
          <mxGeometry relative="1" as="geometry" />
        </mxCell>
        <mxCell id="UcPua-DJIdnO7vjkErRE-78" value="1" style="edgeLabel;html=1;align=center;verticalAlign=middle;resizable=0;points=[];" parent="UcPua-DJIdnO7vjkErRE-70" vertex="1" connectable="0">
          <mxGeometry x="-0.2346" y="2" relative="1" as="geometry">
            <mxPoint as="offset" />
          </mxGeometry>
        </mxCell>
        <mxCell id="UcPua-DJIdnO7vjkErRE-63" value="order" style="whiteSpace=wrap;html=1;" parent="1" vertex="1">
          <mxGeometry x="350" y="430" width="120" height="60" as="geometry" />
        </mxCell>
        <mxCell id="UcPua-DJIdnO7vjkErRE-68" value="" style="edgeStyle=orthogonalEdgeStyle;rounded=0;orthogonalLoop=1;jettySize=auto;html=1;" parent="1" source="UcPua-DJIdnO7vjkErRE-65" target="UcPua-DJIdnO7vjkErRE-67" edge="1">
          <mxGeometry relative="1" as="geometry" />
        </mxCell>
        <mxCell id="UcPua-DJIdnO7vjkErRE-81" value="1" style="edgeLabel;html=1;align=center;verticalAlign=middle;resizable=0;points=[];" parent="UcPua-DJIdnO7vjkErRE-68" vertex="1" connectable="0">
          <mxGeometry x="-0.0607" y="-1" relative="1" as="geometry">
            <mxPoint as="offset" />
          </mxGeometry>
        </mxCell>
        <mxCell id="UcPua-DJIdnO7vjkErRE-65" value="has" style="rhombus;whiteSpace=wrap;html=1;" parent="1" vertex="1">
          <mxGeometry x="170" y="420" width="80" height="80" as="geometry" />
        </mxCell>
        <mxCell id="UcPua-DJIdnO7vjkErRE-67" value="payment" style="whiteSpace=wrap;html=1;" parent="1" vertex="1">
          <mxGeometry x="-10" y="430" width="120" height="60" as="geometry" />
        </mxCell>
        <mxCell id="UcPua-DJIdnO7vjkErRE-72" value="" style="edgeStyle=orthogonalEdgeStyle;rounded=0;orthogonalLoop=1;jettySize=auto;html=1;" parent="1" source="UcPua-DJIdnO7vjkErRE-69" target="UcPua-DJIdnO7vjkErRE-71" edge="1">
          <mxGeometry relative="1" as="geometry" />
        </mxCell>
        <mxCell id="UcPua-DJIdnO7vjkErRE-79" value="n" style="edgeLabel;html=1;align=center;verticalAlign=middle;resizable=0;points=[];" parent="UcPua-DJIdnO7vjkErRE-72" vertex="1" connectable="0">
          <mxGeometry x="-0.0469" y="-2" relative="1" as="geometry">
            <mxPoint as="offset" />
          </mxGeometry>
        </mxCell>
        <mxCell id="UcPua-DJIdnO7vjkErRE-69" value="has" style="rhombus;whiteSpace=wrap;html=1;" parent="1" vertex="1">
          <mxGeometry x="570" y="420" width="80" height="80" as="geometry" />
        </mxCell>
        <mxCell id="UcPua-DJIdnO7vjkErRE-74" value="" style="edgeStyle=orthogonalEdgeStyle;rounded=0;orthogonalLoop=1;jettySize=auto;html=1;" parent="1" source="UcPua-DJIdnO7vjkErRE-71" target="UcPua-DJIdnO7vjkErRE-73" edge="1">
          <mxGeometry relative="1" as="geometry" />
        </mxCell>
        <mxCell id="UcPua-DJIdnO7vjkErRE-195" value="1" style="edgeLabel;html=1;align=center;verticalAlign=middle;resizable=0;points=[];" parent="UcPua-DJIdnO7vjkErRE-74" vertex="1" connectable="0">
          <mxGeometry x="0.0468" y="1" relative="1" as="geometry">
            <mxPoint as="offset" />
          </mxGeometry>
        </mxCell>
        <mxCell id="UcPua-DJIdnO7vjkErRE-71" value="product" style="whiteSpace=wrap;html=1;" parent="1" vertex="1">
          <mxGeometry x="710" y="430" width="120" height="60" as="geometry" />
        </mxCell>
        <mxCell id="UcPua-DJIdnO7vjkErRE-76" value="" style="edgeStyle=orthogonalEdgeStyle;rounded=0;orthogonalLoop=1;jettySize=auto;html=1;" parent="1" source="UcPua-DJIdnO7vjkErRE-73" target="UcPua-DJIdnO7vjkErRE-75" edge="1">
          <mxGeometry relative="1" as="geometry" />
        </mxCell>
        <mxCell id="UcPua-DJIdnO7vjkErRE-196" value="1" style="edgeLabel;html=1;align=center;verticalAlign=middle;resizable=0;points=[];" parent="UcPua-DJIdnO7vjkErRE-76" vertex="1" connectable="0">
          <mxGeometry x="-0.0747" y="-1" relative="1" as="geometry">
            <mxPoint as="offset" />
          </mxGeometry>
        </mxCell>
        <mxCell id="UcPua-DJIdnO7vjkErRE-73" value="has" style="rhombus;whiteSpace=wrap;html=1;" parent="1" vertex="1">
          <mxGeometry x="730" y="560" width="80" height="80" as="geometry" />
        </mxCell>
        <mxCell id="UcPua-DJIdnO7vjkErRE-75" value="category" style="whiteSpace=wrap;html=1;" parent="1" vertex="1">
          <mxGeometry x="710" y="730" width="120" height="60" as="geometry" />
        </mxCell>
        <mxCell id="UcPua-DJIdnO7vjkErRE-110" value="id" style="ellipse;whiteSpace=wrap;html=1;align=center;fontStyle=4;" parent="1" vertex="1">
          <mxGeometry x="530" y="330" width="100" height="40" as="geometry" />
        </mxCell>
        <mxCell id="UcPua-DJIdnO7vjkErRE-111" value="" style="endArrow=none;html=1;rounded=0;exitX=1;exitY=1;exitDx=0;exitDy=0;entryX=0.5;entryY=0;entryDx=0;entryDy=0;" parent="1" source="UcPua-DJIdnO7vjkErRE-110" edge="1">
          <mxGeometry relative="1" as="geometry">
            <mxPoint x="690" y="450" as="sourcePoint" />
            <mxPoint x="770" y="430" as="targetPoint" />
          </mxGeometry>
        </mxCell>
        <mxCell id="UcPua-DJIdnO7vjkErRE-114" value="name" style="ellipse;whiteSpace=wrap;html=1;align=center;" parent="1" vertex="1">
          <mxGeometry x="680" y="170" width="100" height="40" as="geometry" />
        </mxCell>
        <mxCell id="UcPua-DJIdnO7vjkErRE-115" value="" style="endArrow=none;html=1;rounded=0;exitX=0.5;exitY=1;exitDx=0;exitDy=0;" parent="1" source="UcPua-DJIdnO7vjkErRE-114" edge="1">
          <mxGeometry relative="1" as="geometry">
            <mxPoint x="905" y="340" as="sourcePoint" />
            <mxPoint x="770" y="430" as="targetPoint" />
          </mxGeometry>
        </mxCell>
        <mxCell id="UcPua-DJIdnO7vjkErRE-118" value="stocks" style="ellipse;whiteSpace=wrap;html=1;align=center;" parent="1" vertex="1">
          <mxGeometry x="810" y="260" width="100" height="40" as="geometry" />
        </mxCell>
        <mxCell id="UcPua-DJIdnO7vjkErRE-119" value="" style="endArrow=none;html=1;rounded=0;exitX=0.5;exitY=1;exitDx=0;exitDy=0;" parent="1" source="UcPua-DJIdnO7vjkErRE-118" edge="1">
          <mxGeometry relative="1" as="geometry">
            <mxPoint x="1095" y="380" as="sourcePoint" />
            <mxPoint x="770" y="430" as="targetPoint" />
          </mxGeometry>
        </mxCell>
        <mxCell id="UcPua-DJIdnO7vjkErRE-120" value="price" style="ellipse;whiteSpace=wrap;html=1;align=center;" parent="1" vertex="1">
          <mxGeometry x="850" y="320" width="100" height="40" as="geometry" />
        </mxCell>
        <mxCell id="UcPua-DJIdnO7vjkErRE-121" value="" style="endArrow=none;html=1;rounded=0;exitX=0.5;exitY=1;exitDx=0;exitDy=0;entryX=0.5;entryY=0;entryDx=0;entryDy=0;" parent="1" source="UcPua-DJIdnO7vjkErRE-120" edge="1">
          <mxGeometry relative="1" as="geometry">
            <mxPoint x="1165" y="420" as="sourcePoint" />
            <mxPoint x="770" y="430" as="targetPoint" />
          </mxGeometry>
        </mxCell>
        <mxCell id="UcPua-DJIdnO7vjkErRE-122" value="categoryId" style="ellipse;whiteSpace=wrap;html=1;align=center;" parent="1" vertex="1">
          <mxGeometry x="530" y="260" width="100" height="40" as="geometry" />
        </mxCell>
        <mxCell id="UcPua-DJIdnO7vjkErRE-123" value="" style="endArrow=none;html=1;rounded=0;exitX=1;exitY=1;exitDx=0;exitDy=0;entryX=0.5;entryY=0;entryDx=0;entryDy=0;" parent="1" source="UcPua-DJIdnO7vjkErRE-122" edge="1">
          <mxGeometry relative="1" as="geometry">
            <mxPoint x="790" y="360" as="sourcePoint" />
            <mxPoint x="770" y="430" as="targetPoint" />
          </mxGeometry>
        </mxCell>
        <mxCell id="UcPua-DJIdnO7vjkErRE-124" value="description" style="ellipse;whiteSpace=wrap;html=1;align=center;" parent="1" vertex="1">
          <mxGeometry x="750" y="210" width="100" height="40" as="geometry" />
        </mxCell>
        <mxCell id="UcPua-DJIdnO7vjkErRE-125" value="" style="endArrow=none;html=1;rounded=0;exitX=0.5;exitY=1;exitDx=0;exitDy=0;entryX=0.5;entryY=0;entryDx=0;entryDy=0;" parent="1" source="UcPua-DJIdnO7vjkErRE-124" target="UcPua-DJIdnO7vjkErRE-71" edge="1">
          <mxGeometry relative="1" as="geometry">
            <mxPoint x="1055" y="330" as="sourcePoint" />
            <mxPoint x="730" y="380" as="targetPoint" />
          </mxGeometry>
        </mxCell>
        <mxCell id="UcPua-DJIdnO7vjkErRE-126" value="image" style="ellipse;whiteSpace=wrap;html=1;align=center;" parent="1" vertex="1">
          <mxGeometry x="600" y="210" width="100" height="40" as="geometry" />
        </mxCell>
        <mxCell id="UcPua-DJIdnO7vjkErRE-127" value="" style="endArrow=none;html=1;rounded=0;exitX=0.5;exitY=1;exitDx=0;exitDy=0;entryX=0.5;entryY=0;entryDx=0;entryDy=0;" parent="1" source="UcPua-DJIdnO7vjkErRE-126" target="UcPua-DJIdnO7vjkErRE-71" edge="1">
          <mxGeometry relative="1" as="geometry">
            <mxPoint x="835" y="400" as="sourcePoint" />
            <mxPoint x="770" y="470" as="targetPoint" />
          </mxGeometry>
        </mxCell>
        <mxCell id="UcPua-DJIdnO7vjkErRE-128" value="id" style="ellipse;whiteSpace=wrap;html=1;align=center;fontStyle=4;" parent="1" vertex="1">
          <mxGeometry x="180" y="340" width="100" height="40" as="geometry" />
        </mxCell>
        <mxCell id="UcPua-DJIdnO7vjkErRE-134" value="orderId" style="ellipse;whiteSpace=wrap;html=1;align=center;" parent="1" vertex="1">
          <mxGeometry x="-90" y="290" width="100" height="50" as="geometry" />
        </mxCell>
        <mxCell id="UcPua-DJIdnO7vjkErRE-135" value="" style="endArrow=none;html=1;rounded=0;exitX=0.5;exitY=1;exitDx=0;exitDy=0;entryX=0.5;entryY=0;entryDx=0;entryDy=0;" parent="1" source="UcPua-DJIdnO7vjkErRE-134" edge="1" target="UcPua-DJIdnO7vjkErRE-67">
          <mxGeometry relative="1" as="geometry">
            <mxPoint x="-150" y="340" as="sourcePoint" />
            <mxPoint x="-10" y="460" as="targetPoint" />
          </mxGeometry>
        </mxCell>
        <mxCell id="UcPua-DJIdnO7vjkErRE-136" value="amount" style="ellipse;whiteSpace=wrap;html=1;align=center;" parent="1" vertex="1">
          <mxGeometry x="10" y="235" width="100" height="50" as="geometry" />
        </mxCell>
        <mxCell id="UcPua-DJIdnO7vjkErRE-137" value="" style="endArrow=none;html=1;rounded=0;exitX=0.5;exitY=1;exitDx=0;exitDy=0;entryX=0.5;entryY=0;entryDx=0;entryDy=0;" parent="1" source="UcPua-DJIdnO7vjkErRE-136" target="UcPua-DJIdnO7vjkErRE-67" edge="1">
          <mxGeometry relative="1" as="geometry">
            <mxPoint x="-140" y="270" as="sourcePoint" />
            <mxPoint y="390" as="targetPoint" />
          </mxGeometry>
        </mxCell>
        <mxCell id="UcPua-DJIdnO7vjkErRE-138" value="type" style="ellipse;whiteSpace=wrap;html=1;align=center;" parent="1" vertex="1">
          <mxGeometry x="120" y="260" width="100" height="50" as="geometry" />
        </mxCell>
        <mxCell id="UcPua-DJIdnO7vjkErRE-139" value="" style="endArrow=none;html=1;rounded=0;exitX=0.5;exitY=1;exitDx=0;exitDy=0;entryX=0.5;entryY=0;entryDx=0;entryDy=0;" parent="1" source="UcPua-DJIdnO7vjkErRE-138" target="UcPua-DJIdnO7vjkErRE-67" edge="1">
          <mxGeometry relative="1" as="geometry">
            <mxPoint x="-20" y="240" as="sourcePoint" />
            <mxPoint x="110" y="430" as="targetPoint" />
          </mxGeometry>
        </mxCell>
        <mxCell id="UcPua-DJIdnO7vjkErRE-140" value="id" style="ellipse;whiteSpace=wrap;html=1;align=center;fontStyle=4;direction=east;" parent="1" vertex="1">
          <mxGeometry x="280" y="640" width="100" height="40" as="geometry" />
        </mxCell>
        <mxCell id="UcPua-DJIdnO7vjkErRE-141" value="" style="endArrow=none;html=1;rounded=0;entryX=0.5;entryY=1;entryDx=0;entryDy=0;" parent="1" source="UcPua-DJIdnO7vjkErRE-140" target="UcPua-DJIdnO7vjkErRE-63" edge="1">
          <mxGeometry relative="1" as="geometry">
            <mxPoint x="310" y="780" as="sourcePoint" />
            <mxPoint x="390" y="760" as="targetPoint" />
          </mxGeometry>
        </mxCell>
        <mxCell id="UcPua-DJIdnO7vjkErRE-142" value="userId" style="ellipse;whiteSpace=wrap;html=1;align=center;direction=east;" parent="1" vertex="1">
          <mxGeometry x="360" y="690" width="100" height="40" as="geometry" />
        </mxCell>
        <mxCell id="UcPua-DJIdnO7vjkErRE-143" value="" style="endArrow=none;html=1;rounded=0;exitX=0.5;exitY=0;exitDx=0;exitDy=0;entryX=0.5;entryY=1;entryDx=0;entryDy=0;" parent="1" source="UcPua-DJIdnO7vjkErRE-142" target="UcPua-DJIdnO7vjkErRE-63" edge="1">
          <mxGeometry relative="1" as="geometry">
            <mxPoint x="400" y="680" as="sourcePoint" />
            <mxPoint x="390" y="760" as="targetPoint" />
          </mxGeometry>
        </mxCell>
        <mxCell id="UcPua-DJIdnO7vjkErRE-144" value="address" style="ellipse;whiteSpace=wrap;html=1;align=center;direction=east;" parent="1" vertex="1">
          <mxGeometry x="470" y="660" width="100" height="40" as="geometry" />
        </mxCell>
        <mxCell id="UcPua-DJIdnO7vjkErRE-145" value="" style="endArrow=none;html=1;rounded=0;exitX=0.5;exitY=0;exitDx=0;exitDy=0;entryX=0.5;entryY=1;entryDx=0;entryDy=0;" parent="1" source="UcPua-DJIdnO7vjkErRE-144" target="UcPua-DJIdnO7vjkErRE-63" edge="1">
          <mxGeometry relative="1" as="geometry">
            <mxPoint x="525" y="670" as="sourcePoint" />
            <mxPoint x="390" y="760" as="targetPoint" />
          </mxGeometry>
        </mxCell>
        <mxCell id="UcPua-DJIdnO7vjkErRE-146" value="status" style="ellipse;whiteSpace=wrap;html=1;align=center;direction=east;" parent="1" vertex="1">
          <mxGeometry x="540" y="600" width="100" height="40" as="geometry" />
        </mxCell>
        <mxCell id="UcPua-DJIdnO7vjkErRE-147" value="" style="endArrow=none;html=1;rounded=0;exitX=0.5;exitY=0;exitDx=0;exitDy=0;entryX=0.5;entryY=1;entryDx=0;entryDy=0;" parent="1" source="UcPua-DJIdnO7vjkErRE-146" target="UcPua-DJIdnO7vjkErRE-63" edge="1">
          <mxGeometry relative="1" as="geometry">
            <mxPoint x="615" y="660" as="sourcePoint" />
            <mxPoint x="390" y="760" as="targetPoint" />
          </mxGeometry>
        </mxCell>
        <mxCell id="UcPua-DJIdnO7vjkErRE-152" value="amount" style="ellipse;whiteSpace=wrap;html=1;align=center;direction=east;" parent="1" vertex="1">
          <mxGeometry x="200" y="580" width="100" height="40" as="geometry" />
        </mxCell>
        <mxCell id="UcPua-DJIdnO7vjkErRE-153" value="" style="endArrow=none;html=1;rounded=0;exitX=1;exitY=0;exitDx=0;exitDy=0;entryX=0.5;entryY=1;entryDx=0;entryDy=0;" parent="1" source="UcPua-DJIdnO7vjkErRE-152" target="UcPua-DJIdnO7vjkErRE-63" edge="1">
          <mxGeometry relative="1" as="geometry">
            <mxPoint x="410" y="690" as="sourcePoint" />
            <mxPoint x="390" y="760" as="targetPoint" />
          </mxGeometry>
        </mxCell>
        <mxCell id="UcPua-DJIdnO7vjkErRE-185" value="id" style="ellipse;whiteSpace=wrap;html=1;align=center;fontStyle=4;direction=east;" parent="1" vertex="1">
          <mxGeometry x="590" y="920" width="100" height="40" as="geometry" />
        </mxCell>
        <mxCell id="UcPua-DJIdnO7vjkErRE-186" value="" style="endArrow=none;html=1;rounded=0;entryX=0.5;entryY=1;entryDx=0;entryDy=0;" parent="1" source="UcPua-DJIdnO7vjkErRE-185" edge="1">
          <mxGeometry relative="1" as="geometry">
            <mxPoint x="670" y="1080" as="sourcePoint" />
            <mxPoint x="770" y="790" as="targetPoint" />
          </mxGeometry>
        </mxCell>
        <mxCell id="UcPua-DJIdnO7vjkErRE-187" value="name" style="ellipse;whiteSpace=wrap;html=1;align=center;direction=east;" parent="1" vertex="1">
          <mxGeometry x="710" y="950" width="100" height="40" as="geometry" />
        </mxCell>
        <mxCell id="UcPua-DJIdnO7vjkErRE-188" value="" style="endArrow=none;html=1;rounded=0;exitX=0.5;exitY=0;exitDx=0;exitDy=0;entryX=0.5;entryY=1;entryDx=0;entryDy=0;" parent="1" source="UcPua-DJIdnO7vjkErRE-187" edge="1">
          <mxGeometry relative="1" as="geometry">
            <mxPoint x="760" y="980" as="sourcePoint" />
            <mxPoint x="770" y="790" as="targetPoint" />
          </mxGeometry>
        </mxCell>
        <mxCell id="UcPua-DJIdnO7vjkErRE-189" value="image" style="ellipse;whiteSpace=wrap;html=1;align=center;direction=east;" parent="1" vertex="1">
          <mxGeometry x="800" y="890" width="100" height="40" as="geometry" />
        </mxCell>
        <mxCell id="UcPua-DJIdnO7vjkErRE-190" value="" style="endArrow=none;html=1;rounded=0;exitX=0.5;exitY=0;exitDx=0;exitDy=0;entryX=0.5;entryY=1;entryDx=0;entryDy=0;" parent="1" source="UcPua-DJIdnO7vjkErRE-189" edge="1">
          <mxGeometry relative="1" as="geometry">
            <mxPoint x="885" y="970" as="sourcePoint" />
            <mxPoint x="770" y="790" as="targetPoint" />
          </mxGeometry>
        </mxCell>
        <mxCell id="UcPua-DJIdnO7vjkErRE-193" value="description" style="ellipse;whiteSpace=wrap;html=1;align=center;direction=east;" parent="1" vertex="1">
          <mxGeometry x="540" y="860" width="100" height="40" as="geometry" />
        </mxCell>
        <mxCell id="UcPua-DJIdnO7vjkErRE-194" value="" style="endArrow=none;html=1;rounded=0;exitX=1;exitY=0;exitDx=0;exitDy=0;entryX=0.5;entryY=1;entryDx=0;entryDy=0;" parent="1" source="UcPua-DJIdnO7vjkErRE-193" edge="1">
          <mxGeometry relative="1" as="geometry">
            <mxPoint x="770" y="990" as="sourcePoint" />
            <mxPoint x="770" y="790" as="targetPoint" />
          </mxGeometry>
        </mxCell>
        <mxCell id="J34ztei6WZA28_C6M6jU-5" value="" style="endArrow=none;html=1;rounded=0;exitX=0;exitY=0.5;exitDx=0;exitDy=0;" edge="1" parent="1" source="UcPua-DJIdnO7vjkErRE-128">
          <mxGeometry relative="1" as="geometry">
            <mxPoint x="-55" y="338" as="sourcePoint" />
            <mxPoint x="50" y="430" as="targetPoint" />
          </mxGeometry>
        </mxCell>
      </root>
    </mxGraphModel>
  </diagram>
</mxfile>
